<svg xmlns="http://www.w3.org/2000/svg" width="154.5" viewBox="-12.5 -31.25 43.1 31.25" height="112.021" data-palette-color="#ffffff">
  <path d="m30.6-8-1.4 8h-19l5.5-31.25h9.5L21.1-8h9.5ZM9.1-2.4 8.7-.15-12.5-2.4H9.1Zm1.7-9.65-.4 2.25-21.2-2.25h21.6Zm.85-4.8-.4 2.25-21.2-2.25h21.6Zm.85-4.8-.4 2.25-21.2-2.25h21.6Zm.8-4.8-.35 2.25-21.2-2.25H13.3ZM9.95-7.25 9.55-5l-21.2-2.25h21.6Zm4.2-24-.4 2.25-21.15-2.25h21.55Z" fill="#0080ff" class="undefined-text-0" data-fill-palette-color="primary"/>
</svg>
