<svg xmlns="http://www.w3.org/2000/svg" version="1.1" xmlns:xlink="http://www.w3.org/1999/xlink" xmlns:svgjs="http://svgjs.dev/svgjs" width="1000" height="370" viewBox="0 0 1000 370"><g transform="matrix(1,0,0,1,0.16994382022460286,0.407065425963026)"><svg viewBox="0 0 356 132" data-background-color="#0080ff" preserveAspectRatio="xMidYMid meet" height="370" width="1000" xmlns="http://www.w3.org/2000/svg" xmlns:xlink="http://www.w3.org/1999/xlink"><g id="tight-bounds" transform="matrix(1,0,0,1,-0.06049999999996203,-0.1452233411543773)"><svg viewBox="0 0 356.12052 132.29044668230875" height="132.29044668230875" width="356.12052"><g><svg viewBox="0 0 356.12052 132.29044668230875" height="132.29044668230875" width="356.12052"><g><svg viewBox="0 0 356.12052 132.29044668230875" height="132.29044668230875" width="356.12052"><g><path d="M0 132.29v-132.29h356.121v132.29z" fill="#ffffff" stroke="transparent" stroke-width="0" rx="0%" data-fill-palette-color="tertiary"></path><path d="M3.283 129.007v-125.724h349.554v125.724z" fill="#0080ff" stroke="transparent" stroke-width="0" rx="0%" data-fill-palette-color="quaternary"></path><path d="M9.85 122.441v-112.591h336.421v112.591z" fill="#ffffff" stroke="transparent" stroke-width="0" data-fill-palette-color="tertiary"></path></g><g transform="matrix(1,0,0,1,19.69974,19.69974)"><svg viewBox="0 0 316.72104 92.89096668230877" height="92.89096668230877" width="316.72104"><g><svg viewBox="0 0 316.72104 92.89096668230877" height="92.89096668230877" width="316.72104"><g transform="matrix(1,0,0,1,0,0)"><svg width="316.72104" viewBox="-12.5 -31.25 106.55000305175781 31.25" height="92.89096668230877" data-palette-color="#0080ff"><path d="M30.6-8L29.2 0 10.2 0 15.7-31.25 25.2-31.25 21.1-8 30.6-8ZM9.1-2.4L8.7-0.15-12.5-2.4 9.1-2.4ZM10.8-12.05L10.4-9.8-10.8-12.05 10.8-12.05ZM11.65-16.85L11.25-14.6-9.95-16.85 11.65-16.85ZM12.5-21.65L12.1-19.4-9.1-21.65 12.5-21.65ZM13.3-26.45L12.95-24.2-8.25-26.45 13.3-26.45ZM9.95-7.25L9.55-5-11.65-7.25 9.95-7.25ZM14.15-31.25L13.75-29-7.4-31.25 14.15-31.25ZM65.35-31.25L63.9-23.25 57-23.25 52.95 0 43.45 0 47.5-23.25 40.65-23.25 42.1-31.25 65.35-31.25ZM42.3-2.4L41.9-0.15 20.7-2.4 42.3-2.4ZM44-12.05L43.6-9.8 22.4-12.05 44-12.05ZM44.85-16.85L44.45-14.6 23.25-16.85 44.85-16.85ZM45.7-21.65L45.3-19.4 24.1-21.65 45.7-21.65ZM43.15-7.25L42.75-5 21.55-7.25 43.15-7.25ZM39.65-26.45L39.3-24.2 18.1-26.45 39.65-26.45ZM40.5-31.25L40.1-29 18.95-31.25 40.5-31.25ZM94.05-8L92.65 0 73.65 0 79.15-31.25 88.65-31.25 84.55-8 94.05-8ZM72.55-2.4L72.15-0.15 50.95-2.4 72.55-2.4ZM74.25-12.05L73.85-9.8 52.65-12.05 74.25-12.05ZM75.1-16.85L74.7-14.6 53.5-16.85 75.1-16.85ZM75.95-21.65L75.55-19.4 54.35-21.65 75.95-21.65ZM76.75-26.45L76.4-24.2 55.2-26.45 76.75-26.45ZM73.4-7.25L73-5 51.8-7.25 73.4-7.25ZM77.6-31.25L77.2-29 56.05-31.25 77.6-31.25Z" opacity="1" transform="matrix(1,0,0,1,0,0)" fill="#0080ff" class="undefined-text-0" data-fill-palette-color="quaternary" id="text-0"></path></svg></g></svg></g></svg></g></svg></g><g></g></svg></g><defs></defs></svg><rect width="356.12052" height="132.29044668230875" fill="none" stroke="none" visibility="hidden"></rect></g></svg></g></svg>